<?xml version='1.0' encoding='UTF-8'?>
<svg xmlns="http://www.w3.org/2000/svg" version="1.1" width="1024" height="1024">
<path d="M0 0 C2.39809699 -0.0013598 4.79619377 -0.00314295 7.19429016 -0.00531006 C13.62357063 -0.00981389 20.0528348 -0.00812475 26.48211551 -0.00493097 C30.51250757 -0.00313605 34.54289762 -0.00349477 38.57328987 -0.00442123 C39.24744448 -0.00457447 39.92159908 -0.0047277 40.61618261 -0.00488558 C41.9866631 -0.00520537 43.35714358 -0.00552959 44.72762407 -0.00585817 C57.49756982 -0.00869159 70.26750832 -0.00545897 83.03745288 -0.0000578 C93.95107897 0.00441546 104.86469442 0.00362584 115.77832031 -0.00097656 C128.52106099 -0.00634797 141.26379537 -0.00842457 154.00653702 -0.0053643 C155.36915052 -0.00504582 156.73176402 -0.00473145 158.09437752 -0.00442123 C158.76444113 -0.00426696 159.43450475 -0.00411268 160.12487332 -0.00395373 C164.80600813 -0.00309679 169.48713767 -0.00458347 174.16827202 -0.00690079 C180.48289525 -0.00980946 186.79749857 -0.00774924 193.11211967 -0.00200653 C195.41537442 -0.0006953 197.71863087 -0.00104485 200.02188492 -0.0032692 C210.43928853 -0.01239513 220.84709425 0.02069736 231.254776 0.51248169 C232.00384073 0.54283851 232.75290545 0.57319532 233.52466911 0.60447204 C238.62640381 0.89031982 238.62640381 0.89031982 240.86547852 3.12939453 C241.71790591 12.28468616 241.84425479 20.30663541 235.80297852 27.62939453 C230.90811614 31.79523485 225.56166933 35.31995092 220.22875977 38.89892578 C198.17285687 54.19316501 182.31199565 77.23270027 172.86547852 102.12939453 C172.43750977 103.22638672 172.00954102 104.32337891 171.56860352 105.45361328 C158.94507496 140.24623982 158.69895751 179.15031968 158.73927992 215.72501187 C158.74209006 219.31299899 158.73897966 222.90098212 158.73663259 226.48896891 C158.73329973 232.76152697 158.73354333 239.03407663 158.73618889 245.3066349 C158.74007352 254.6349748 158.7381107 263.96330712 158.73477473 273.29164692 C158.72956161 288.0332336 158.72748732 302.77481846 158.72740985 317.51640599 C158.72715811 340.92858872 158.71545208 364.34075589 158.69979927 387.75293291 C158.69647532 392.74368892 158.69325333 397.734445 158.69001842 402.72520107 C158.68608246 408.78301114 158.68213584 414.84082121 158.6781572 420.89863126 C158.66319879 443.7184715 158.6495736 466.53831236 158.63745117 489.3581543 C158.63689301 490.40040626 158.63633485 491.44265823 158.63575977 492.51649359 C158.6177658 526.30424957 158.61343576 560.09199274 158.61515019 593.87975288 C158.61682174 628.66279631 158.60186804 663.44579756 158.56722536 698.22882454 C158.56234051 703.14743338 158.55765869 708.0660424 158.55310822 712.98465157 C158.55220868 713.95254893 158.55130915 714.92044629 158.55038235 715.91767387 C158.53646085 731.44888116 158.54014341 746.98003605 158.55072014 762.51124393 C158.56102515 778.13868496 158.55324568 793.76603451 158.52730241 809.39345812 C158.51247538 818.65946453 158.51133039 827.92522894 158.5304411 837.19122879 C158.54186228 843.40152902 158.5347938 849.61164102 158.51349387 855.8219145 C158.50191339 859.34661592 158.49761545 862.87084215 158.51617047 866.39552473 C158.64525016 897.6828951 155.01874652 934.89623455 132.86547852 959.12939453 C132.10235352 960.14001953 131.33922852 961.15064453 130.55297852 962.19189453 C110.58483035 984.01754485 82.53408735 992.59423016 53.86547852 994.12939453 C47.77206533 994.30087365 41.67556721 994.27062741 35.58032227 994.26220703 C33.83077481 994.26288311 32.08122744 994.26385566 30.3316803 994.2651062 C26.67993264 994.26657159 23.02820961 994.264468 19.37646484 994.25976562 C14.75689422 994.25409893 10.13738212 994.25733533 5.51781368 994.26333809 C1.90639325 994.26700081 -1.70501397 994.26577883 -5.31643486 994.2632103 C-7.01642298 994.26255514 -8.71641241 994.26331844 -10.416399 994.26568985 C-66.01113445 994.32619845 -119.1379931 981.91568512 -166.13452148 951.12939453 C-166.82626465 950.68096191 -167.51800781 950.2325293 -168.23071289 949.77050781 C-178.20062943 943.26981323 -187.28829735 936.07976544 -196.13452148 928.12939453 C-196.68156738 927.6440625 -197.22861328 927.15873047 -197.79223633 926.65869141 C-203.98884922 921.15963691 -209.92706664 915.59689734 -215.13452148 909.12939453 C-215.95307617 908.11361328 -216.77163086 907.09783203 -217.61499023 906.05126953 C-220.49614494 902.44220609 -223.3253907 898.79471353 -226.13452148 895.12939453 C-226.60470703 894.51612305 -227.07489258 893.90285156 -227.55932617 893.27099609 C-234.42814109 884.25359685 -240.55590422 874.99500325 -246.13452148 865.12939453 C-246.49223633 864.50967773 -246.84995117 863.88996094 -247.21850586 863.25146484 C-254.92433313 849.82506382 -260.55726017 835.54227453 -266.13452148 821.12939453 C-266.42343262 820.40042969 -266.71234375 819.67146484 -267.01000977 818.92041016 C-275.71525582 796.76588268 -279.02845784 771.23773152 -280.24433899 747.60255432 C-280.28630122 746.81242026 -280.32826344 746.0222862 -280.37149725 745.20820869 C-281.40281925 725.36305616 -281.41453217 705.52327816 -281.38131177 685.65651882 C-281.37459773 680.28287672 -281.37971233 674.90924215 -281.38319397 669.53559875 C-281.38818101 659.06431136 -281.38266444 648.59305609 -281.37334367 638.1217727 C-281.36284545 625.87747988 -281.36303286 613.6331936 -281.36351625 601.38889713 C-281.36401455 579.51389674 -281.35491875 557.63891109 -281.34033203 535.76391602 C-281.32624769 514.63077527 -281.31916156 493.49764746 -281.31982422 472.36450195 C-281.31986417 471.06237721 -281.31990413 469.76025246 -281.3199453 468.4186694 C-281.31998565 467.11859581 -281.32002601 465.81852223 -281.32006758 464.47905248 C-281.32076089 440.2827369 -281.31484796 416.08642671 -281.30591437 391.89011289 C-281.30292281 383.3941229 -281.30183779 374.89813393 -281.30138206 366.40214348 C-281.30069344 356.02200097 -281.29613999 345.64186758 -281.28704926 335.26172893 C-281.28249447 329.98523951 -281.27936176 324.70876157 -281.28064346 319.43227005 C-281.28426336 299.96093662 -281.21638871 280.50050463 -280.68403625 261.03541565 C-280.66437666 260.29482023 -280.64471707 259.55422481 -280.62446173 258.7911871 C-280.32488098 247.83690796 -279.72033578 236.98070771 -278.13452148 226.12939453 C-278.00102295 225.1711377 -277.86752441 224.21288086 -277.72998047 223.22558594 C-271.43869341 179.88851047 -254.54939376 134.75126931 -227.13452148 100.12939453 C-226.53124023 99.35337891 -225.92795898 98.57736328 -225.30639648 97.77783203 C-217.98449368 88.46690839 -210.01910745 79.91709876 -201.69702148 71.50439453 C-200.98610352 70.7804248 -200.27518555 70.05645508 -199.54272461 69.31054688 C-198.53822266 68.30435303 -198.53822266 68.30435303 -197.51342773 67.27783203 C-196.91087158 66.67116699 -196.30831543 66.06450195 -195.6875 65.43945312 C-194.13452148 64.12939453 -194.13452148 64.12939453 -192.13452148 64.12939453 C-192.13452148 63.46939453 -192.13452148 62.80939453 -192.13452148 62.12939453 C-190.33742537 60.55693543 -188.54319547 59.11899709 -186.63452148 57.69189453 C-186.04993164 57.25087402 -185.4653418 56.80985352 -184.86303711 56.35546875 C-182.96253957 54.93410086 -181.0512171 53.52883301 -179.13452148 52.12939453 C-178.52479492 51.68354004 -177.91506836 51.23768555 -177.28686523 50.77832031 C-166.08456211 42.66497498 -154.26807016 35.74988719 -142.13452148 29.12939453 C-141.43891113 28.74654297 -140.74330078 28.36369141 -140.02661133 27.96923828 C-116.83316312 15.33204408 -91.21985082 7.87831198 -65.32202148 3.31689453 C-64.18619629 3.10967773 -63.05037109 2.90246094 -61.88012695 2.68896484 C-54.14981831 1.41543435 -46.51199996 0.87253249 -38.69102478 0.57620239 C-37.59659717 0.53398689 -36.50216955 0.4917714 -35.37457746 0.44827664 C-23.58253856 0.02636083 -11.79820809 -0.01147157 0 0 Z " fill="#D4A845" transform="translate(320.134521484375,15.87060546875)" />
<path d="M0 0 C2.47840459 -0.00202617 4.9568086 -0.00494211 7.43521118 -0.00869751 C12.61783552 -0.01310351 17.80030405 -0.00675097 22.98291016 0.00732422 C29.5560737 0.02432483 36.12886715 0.0146216 42.70201683 -0.00339317 C47.82083809 -0.01435486 52.93957507 -0.01072712 58.0583992 -0.0030098 C60.47797313 -0.0010371 62.89755524 -0.00336131 65.3171196 -0.01044846 C85.97905343 -0.05766075 106.25975351 1.6084709 126.4765625 6.0234375 C127.63349609 6.27504639 128.79042969 6.52665527 129.98242188 6.78588867 C168.60474309 15.61798215 207.00206356 35.06867604 236.03515625 62.078125 C238.10166483 63.99311111 240.20050923 65.83077465 242.3515625 67.6484375 C260.65946499 83.62076395 275.31806541 102.50200018 287.42578125 123.48193359 C288.53935043 125.39893316 289.67806009 127.29920077 290.8203125 129.19921875 C296.43988078 138.68524214 300.6875314 148.45830564 304.55078125 158.77441406 C305.53409326 161.38524348 306.55005257 163.98154393 307.5703125 166.578125 C315.90316127 188.16124192 321.08013362 210.41458293 323.5390625 233.3984375 C323.61377465 234.02407617 323.68848679 234.64971483 323.76546295 235.29431225 C324.40564839 240.7539108 324.82748968 246.19507768 325.09320545 251.68501091 C325.1353276 252.54960524 325.17744974 253.41419958 325.22084831 254.30499374 C325.64976898 263.8079966 325.68149154 273.30233787 325.67277527 282.81326294 C325.67464901 284.78777385 325.67695192 286.76228439 325.67964059 288.73679435 C325.68569536 294.10276953 325.68563256 299.46872898 325.68444622 304.83470678 C325.68424059 310.64540688 325.68977619 316.45610214 325.69450378 322.26679993 C325.70277576 333.62806733 325.70555704 344.98932955 325.70611616 356.35059972 C325.7065929 365.59332124 325.70865551 374.83604107 325.71181679 384.07876205 C325.71271139 386.74902944 325.71360428 389.41929682 325.71449167 392.0895642 C325.71471271 392.7535865 325.71493376 393.4176088 325.71516151 394.10175298 C325.72130674 412.75299611 325.72526298 431.40423867 325.72481823 450.05548286 C325.72480265 450.75719693 325.72478707 451.458911 325.72477102 452.18188912 C325.72468793 455.73765267 325.72458889 459.29341621 325.72448631 462.84917976 C325.7244564 463.90827002 325.7244564 463.90827002 325.72442587 464.98875604 C325.72438544 466.41657829 325.72434364 467.84440053 325.72430048 469.27222278 C325.72368802 491.47641028 325.73119272 513.6805825 325.74487305 535.88476562 C325.76027281 560.88943136 325.76883696 585.89408705 325.76790982 610.89875782 C325.76754072 624.11648262 325.77027995 637.33419305 325.78108788 650.55191422 C325.79023161 661.80561567 325.79233645 673.05929205 325.78557845 684.31299563 C325.78233289 690.04382726 325.78218479 695.7746109 325.7909317 701.50543785 C325.88138848 764.86939735 319.25926017 827.22125208 281.5390625 880.3984375 C280.6762184 881.64653791 279.81423664 882.89523492 278.953125 884.14453125 C262.25269179 908.15939616 242.06932515 928.14291156 218.5390625 945.3984375 C217.78753906 945.95917969 217.03601563 946.51992188 216.26171875 947.09765625 C188.00360899 967.60837564 155.57153409 981.09131693 121.5390625 988.3984375 C120.86193396 988.54466207 120.18480541 988.69088663 119.48715782 988.84154224 C90.33469421 994.92474923 60.35413865 993.82064751 30.74584058 993.7408144 C23.91863807 993.72290392 17.09145864 993.72182476 10.26423639 993.72117433 C-1.93292048 993.7194989 -14.13001704 993.70383702 -26.32714844 993.6796875 C-38.09733583 993.65640109 -49.86748506 993.64225516 -61.63769531 993.63867188 C-62.72733779 993.63833772 -62.72733779 993.63833772 -63.83899325 993.63799682 C-65.30296509 993.63755414 -66.76693694 993.63711211 -68.23090878 993.63667075 C-69.31478372 993.6363414 -69.31478372 993.6363414 -70.42055511 993.6360054 C-71.14160237 993.63578942 -71.86264963 993.63557343 -72.6055468 993.6353509 C-83.92174112 993.63163131 -95.2379295 993.62027716 -106.55411717 993.607875 C-110.61948962 993.60347824 -114.68486152 993.60002448 -118.75023538 993.59725288 C-125.80717568 993.59235636 -132.86408451 993.58211597 -139.92100906 993.56642532 C-142.24677398 993.56195849 -144.57254265 993.55907726 -146.89831161 993.55801773 C-154.08686892 993.55401262 -161.27318144 993.50699901 -168.4609375 993.3984375 C-169.49248774 993.38486175 -170.52403797 993.37128599 -171.58684731 993.35729885 C-174.62867038 993.30739229 -177.66821951 993.22794814 -180.70910645 993.1383667 C-181.62065223 993.12488733 -182.53219802 993.11140795 -183.47136641 993.09752011 C-187.56763434 992.94531058 -189.93252644 992.71360418 -193.51183319 990.57875443 C-196.91308212 986.77403214 -196.5758835 982.7778196 -196.34375 977.97265625 C-195.40444607 970.60713886 -191.97712415 966.20200674 -186.4609375 961.3984375 C-183.63679072 959.40540858 -180.7478356 957.55301798 -177.828125 955.703125 C-173.79554649 953.04292791 -170.16919292 949.93401634 -166.5234375 946.7734375 C-165.89687256 946.23493164 -165.27030762 945.69642578 -164.62475586 945.14160156 C-160.82501055 941.80514016 -157.64996224 938.31773314 -154.4609375 934.3984375 C-152.79427083 932.73177083 -151.12760417 931.06510417 -149.4609375 929.3984375 C-142.15615944 920.79262291 -136.77235299 911.29887505 -131.51220703 901.36621094 C-130.66582974 899.78195619 -129.7854406 898.2158968 -128.89453125 896.65625 C-114.24210989 870.10734859 -115.1586483 835.16197804 -115.1824646 805.87303162 C-115.17855073 803.04194114 -115.17165597 800.21085959 -115.16491187 797.37977463 C-115.15189172 791.26187589 -115.14606028 785.14400458 -115.14515114 779.02609253 C-115.14376558 769.92852891 -115.13092491 760.83100563 -115.1158634 751.73345563 C-115.09083129 736.42087916 -115.07490866 721.10830613 -115.06428146 705.79571342 C-115.05373238 690.6387502 -115.03907182 675.48179999 -115.01900101 660.32484627 C-115.01775214 659.37998396 -115.01650327 658.43512166 -115.01521656 657.46162717 C-115.008852 652.6622736 -115.00241496 647.86292013 -114.99595018 643.06356669 C-114.95035181 609.11456883 -114.91387993 575.16556674 -114.8828125 541.21655273 C-114.85265098 508.28002294 -114.81830524 475.34350182 -114.77832031 442.40698242 C-114.77708931 441.39162158 -114.77585831 440.37626073 -114.77459 439.33013138 C-114.7622208 429.13142811 -114.74976827 418.93272494 -114.73725752 408.73402185 C-114.71173734 387.92669085 -114.68682593 367.11935913 -114.66226196 346.31202698 C-114.6605656 344.875778 -114.6605656 344.875778 -114.65883497 343.41051389 C-114.60902507 301.199422 -114.56485329 258.98832496 -114.52341598 216.77722408 C-114.52100396 214.32221489 -114.5185843 211.8672057 -114.5161624 209.41219652 C-114.50644418 199.55633387 -114.49685652 189.70047111 -114.48742429 179.84460818 C-114.48547522 177.81443409 -114.48350738 175.78426002 -114.48153476 173.75408595 C-114.4779469 170.04235333 -114.47444362 166.33062063 -114.47096825 162.6188879 C-114.4699356 161.56195544 -114.46890295 160.50502298 -114.467839 159.41606227 C-114.46195968 153.00643902 -114.46122443 146.59683867 -114.46490023 140.18721325 C-114.43229879 117.2439303 -112.66924627 95.49621087 -106.4609375 73.3984375 C-106.17605469 72.37621094 -105.89117188 71.35398437 -105.59765625 70.30078125 C-101.584486 57.16516231 -95.05706143 45.08219153 -86.4609375 34.3984375 C-85.66816406 33.36009766 -85.66816406 33.36009766 -84.859375 32.30078125 C-73.85676768 18.66947218 -56.15272531 7.92069462 -39.4609375 3.3984375 C-38.6176741 3.15087204 -37.77441071 2.90330658 -36.90559387 2.64823914 C-24.73078285 -0.46840084 -12.48445928 -0.03621466 0 0 Z " fill="#F4EAD0" transform="translate(661.4609375,16.6015625)" />
</svg>